<?xml version="1.0" encoding="UTF-8"?>
<!-- Created with Inkscape (http://www.inkscape.org/) -->
<svg width="136.05" height="101.28" version="1.1" viewBox="0 0 136.05 101.28" xmlns="http://www.w3.org/2000/svg">
 <path transform="matrix(.13333 0 0 -.13333 0 101.28)" d="m507.1 404.07c-79.614 1.723-142.97 67.903-141.25 147.52 0.836 38.574 16.636 74.504 44.5 101.18 27.871 26.688 64.453 40.914 103.01 40.078 79.629-1.718 142.99-67.91 141.26-147.52-0.828-38.562-16.629-74.512-44.5-101.19-27.859-26.668-64.441-40.907-103.02-40.071zm-104.97 257.29c-30.156-28.883-47.258-67.758-48.152-109.52-1.875-86.164 66.714-157.79 152.88-159.67 41.739-0.899 81.329 14.5 111.48 43.367 30.168 28.887 47.265 67.781 48.176 109.53 1.851 86.168-66.719 157.8-152.9 159.65-41.734 0.911-81.324-14.492-111.49-43.367" style="fill:#1266ac"/>
 <path transform="matrix(.13333 0 0 -.13333 0 101.28)" d="m505.88 346.9c-111.15 2.402-199.62 94.785-197.2 205.95 1.152 53.828 23.211 103.99 62.117 141.23 38.887 37.254 89.969 57.121 143.81 55.957 53.829-1.164 104-23.23 141.25-62.129 37.246-38.886 57.11-89.961 55.95-143.8-2.414-111.15-94.797-199.62-205.93-197.21zm-141.69 354.08c-40.743-39.015-63.836-91.546-65.067-147.93-2.519-116.43 90.125-213.19 206.54-215.71 116.41-2.52 213.18 90.144 215.68 206.56 1.242 56.383-19.578 109.88-58.582 150.62-39.036 40.738-91.567 63.847-147.95 65.07-56.383 1.227-109.88-19.582-150.62-58.606" style="fill:#1266ac"/>
 <path transform="matrix(.13333 0 0 -.13333 0 101.28)" d="m552.26 422.9c-78.403-14.074-141.22 16.434-152.72 54.071-7.434 24.347 3.367 29.629 5.086 47.207-13.574-7.235-16.074 11.601-4.094 13.215 12.688 1.699 18.36-11.622 12.199-29.348-8.879-25.469 6.707-37.293 11.082-35.977 0.188 1.328 1.789 4.582 2.563 6.016-10.676 13.633-6.223 33.516 11.98 35.137 7.411 0.664 6.68-4.735 1.524-5.489-13.953-2.019-13.289-17.597-7.481-19.578 1.028 0 2.207 0.262 3.243 1.297-0.247 3.176 1.953 7.695 5.578 6.797 8.035-2.02 4.961-12.273-0.559-13.105-2.07-6.309-6.035-15.098-5.176-19.668 0.84-4.551 4.032-5.45 6.66-2.821 1.946 1.942 2.872 6.641 4.122 11.739-1.321 5.761 1.484 10.125 6.359 8.054 3.379-1.433 3.758-6.629 0.43-10.664-0.43-4.941-2.59-10.547-2.121-14.336 0.48-3.797 5.656-3.535 7.531-1.472 1.863 2.05 3.797 15.449 4.551 18.394-2.915 2.57-1.758 10.481 4.207 10.949 7.019 0.559 5.402-8.984 3.41-11.394 1.968-7.461-1.235-15.871 0.191-19.199 1.438-3.332 6.906-4.122 9.375-1.407 2.465 2.743-0.64 8.485 0.735 15.203-2.364 5.801 0.39 10.45 3.835 10.723 7.832 0.625 5.61-6.426 4.165-11.387 0.398-5.066 1.265-11.132 3.027-15.8 1.133-3.036 6.148-3.731 7.82 0.175 1.043 2.434-1.34 9.344-1.902 14.231-3.391 7.89-0.52 10.047 2.515 10.301 2.883 0.234 6.797-1.387 6.282-9.192 1.582-5.254 2.937-11.597 4.89-15.738 0.879-3.293 4.922-3.637 6.203-0.219 1.243 3.43-1.113 7.461-3.64 12.973-5.617 5.457-0.512 9.656 2.691 9.922 3.196 0.254 8.196-0.617 7.153-9.114 1.726-5.156 2.871-9.863 4.011-12.605 1.328-3.156 5.723-3.527 7.598-1.469 1.887 2.094-1.719 5.727-2.656 10.199-4.239 4.11-3.465 9.747 1.355 10.125 2.485 0.196 7.317-0.078 6.86-7.304 1.421-3.125 1.445-7.102 3.535-10.496 2.515-4.145 6.433-2.578 7.996 1.14 1.535 3.75-8.172 14.602-0.586 15.215 7.598 0.586 8.926-9.363 11.387-11.75 2.461-2.359 4.343-0.789 5.507 0.5 1.993 2.199-3.3 8.164 0.391 9.863 7.449 3.411 7.324-5.097 12.605-5.183 23.086-0.363 41.25 37.527 38.555 48.222-7.722 4.579-5.008 16.024 1.457 16.141 15.906 0.293 13.66-22.187 1.602-48.293-15.828-34.207-54.739-51.824-71.336-54.801" style="fill:#1266ac"/>
 <path transform="matrix(.13333 0 0 -.13333 0 101.28)" d="m572.81 609.28c-2.571-2.469-10.665-2.996-14.817-0.574-3.426 2.023-4.219 17.082-2.488 21.152 1.726 4.078 19.441 4.242 20.84 1.446 1.406-2.801-0.965-19.559-3.535-22.024zm-31.719 18.625c0.566-2.148 2.676-11.648 3.164-17.363 0.273-2.129-0.488-4.719-1.77-5.203-3.179-1.211-8.465-0.918-11.343 0.176-3.157 1.21-1.016 13.789-12.61 16.039 1.594 1.117 2.434 2.293 2.754 5.054 0.203 1.809 2.434 3.758 5.164 4.09 5.305 0.598 8.613 0.75 10.395 0.688 1.773-0.059 3.679-1.282 4.246-3.481zm-22.422-62.43c-6.77 0.145-9.285 42.372-2.293 42.235 6.258-0.137 6.961-42.324 2.293-42.235zm67.207 37.5c-0.266 0.106-0.32 0.547-0.266 0.743 3.559 13.687 6.157 19.711 7.453 33.351 0.313 3.262-2.019 5.906-4.187 6.446-8.43 2.105-12.324 2.031-15.586 2.281-0.355 0.023-1.125 0.179-1.367 0.648-0.969 1.985-2.414 7.946-2.434 10.969 4.934 10.445-3.867 14.051-12.156 13.922-5.441 0.262-10.996-2.242-11.645-6.328-0.742-7.903 8-10.793 11.118-11.074 0.527-1.125 1.804-6.637 2.019-8.825 0.027-0.289-0.242-0.605-0.625-0.605-14.015-0.266-32.156-2.715-41.367-3.422-1.316-0.207-1.953 0.559-2.227 1.32-1.711 4.723-9.011 27.008 4.688 26.578 8.125-0.257 14.922 6.391 7.207 11.45-1.984 1.304-12.363 2.578-17.981 1.601-4.656-0.805-6.914-6.058-6.328-10.652 0.918-7.203-17.019-7.942-22.324-5.797-3.785 1.535-8.445 6.047-10.066 8.949-3.45 6.16-9.414 1.461-8.321-1.84 7.434-22.414 31.145-18.851 37.344-19.164 0.313-0.015 0.84-0.422 0.867-0.59 1.516-8.093 6.34-16.632 6.321-19.785-2.95-3.277-1.692-10.301 2.468-11.504-5.086-4.882-7.371-21.933-6.55-36.086 1.035-18.035 8.32-35.527 19.785-33.64 14.582 2.383 8.84 36.101 12.375 38.98 1.773 1.43 6.511 1.028 8.242 0.824 0.398-0.05 0.602-0.5 0.586-0.714-1.152-13.235-4.301-34.453-5.07-40.118-0.789-5.761-1.258-8.75 1.652-14.074 3.211-5.867 9.07-24.527 2.215-44.273-0.203-0.774-0.852-1.028-1.074-1.074-6.18-1.418-9.485-3.352-11.727-4.875-2.441-1.661-5.063-5.11-3.273-7.196 2.585-2.363 19.238-1.445 24.367 6.239 0.125 0.195 0.476 0.918 0.535 1.085 1.777 4.95 4.004 8.575 5.676 11.747 7.672 14.648 8.797 32.656-1.731 40.781-2.949 2.273-5.976 4.441-3.097 10.148 5.57 11.024 6.156 23.067 6.859 33.242 0.281 4.09 7.09 6.434 9.656 2.567 6.375-15.106 1.367-28.125 1.27-33.485-0.125-5.382 1.906-7.863 2.597-11.085 4.344-19.688 2.161-35.633-1.777-55.957-0.02-0.442-0.359-0.735-0.754-0.868-4.629-1.543-7.461-2.511-10.351-4.535-2.926-2.047-4.071-4.668-2.801-6.09 3.867-4.367 21.355 0.36 22.676 5.371 3.281 12.461 26.843 41.336 10.449 59.786-7.481 8.418-7.481 5.039-7.559 9.285-0.039 2.043 4.688 13.215 5.879 21.855 1.238 8.996-4.641 17.559-3.176 22.531 0.039 0.145 0.422 0.387 0.578 0.36 2.43-0.469 8.204-2.012 11.934-4.141 1.152-0.644 3.152-0.129 3.438 4.328 0.312 4.852-11.985 9.532-14.434 10.41" style="fill:#1266ac"/>
 <path transform="matrix(.13333 0 0 -.13333 0 101.28)" d="m437.89 541.28c-2.383 1.328-0.528 6.114 2.929 6.641 2.434 0.379 10.657 1.363 13.516 0.113 2.207-0.957 3.762-5.586 2.519-6.949-2.363-2.617-15.546-1.699-18.964 0.195zm-27.5 15.223c-0.223 2.851 3.625 6.066 6.574 5.449 2.359-0.5 9.683-8.23 10.027-10.039 0.625-3.32-2.031-5.945-4.25-6.113-3.445-0.254-12.078 7.597-12.351 10.703zm1.464 15.547c-1.687-2-5.46-3.262-7.277-1.809-2.723 2.18-3.543 11.106-1.773 14.906 1.187 2.555 7.41 3.965 8.562 1.051 0.789-2.008 1.731-12.672 0.488-14.148zm2.122 25.324c-3.02-1.508-5.825 0.547-6.125 4.258-0.325 3.711 8.437 12.781 11.601 11.922 1.543-0.418 3.867-3.367 3.613-5.985-0.168-1.828-7.336-9.308-9.089-10.195zm47.339-32.305c-3.132 1.368-11.277 12.086-8.378 15 2.714 2.723 14.164 8.524 16 6.805 7.097-6.602-1.458-24.492-7.622-21.805zm-33.308 2.168c0 2.071 10.715 9.344 14.922 7.762 3.398-1.262 8.718-14.617 5.84-15.969-7.774-3.66-20.762 4.797-20.762 8.207zm2.668 32.606c1.519 0.324 8.66-10.742 7.351-14.832-1.101-3.469-14.257-8.352-15.566-7.043-4.016 4.004-0.508 20.039 8.215 21.875zm32.332-2.918c0-3.41-11.903-9.113-14.278-7.707-3.476 2.043-10.566 12.566-9.089 14.394 5.132 6.36 23.367-1.336 23.367-6.687zm-10.227 23.312c0.742-1.605 1.645-3.746-0.039-5.597-1.394-1.543-14.019-1.973-15.906-1.848-3.992 0.266-5.84 4.336-4.523 6.387 2.394 3.722 19.082 4.043 20.468 1.058zm27.778-16.144c-0.422-2.207-4.055-3.059-5.637-2.883-1.934 0.227-10.176 6.672-10.703 8.926-0.703 2.961 1.301 4.843 3.191 5.324 5.129 1.277 13.735-8.203 13.149-11.367zm7.046-29.844c-1.863-1.25-5.41-1.469-6.902 0.789-1.023 1.555-1.355 13.008-0.676 14.707 0.703 1.77 4.551 3.067 6.731 1.867 2.5-1.371 3.894-15.343 0.847-17.363zm-12.222-11.437c1.941 0.175 5.586-0.262 6.648-2.918 1.153-2.891-6.836-11.934-10.539-12.989-2.262-0.656-5.652 2.75-5.027 6.121 0.398 2.176 7.344 9.641 8.918 9.786zm21.277 25.617c-1.328 15.965-16.211 37.07-37.969 40.683-23.625 3.914-60.339-5.547-64.316-40.265-4.121-35.918 23.391-62.61 56.406-60.078 35.821 2.746 47.742 37.058 45.879 59.66" style="fill:#1266ac"/>
 <path transform="matrix(.13333 0 0 -.13333 0 101.28)" d="m445 727.79-1.035-8.055-5.203-6.226 8.054-1.028 6.231-5.218 1.016 8.062 5.214 6.219-8.054 1.035-6.223 5.211" style="fill:#1266ac"/>
 <path transform="matrix(.13333 0 0 -.13333 0 101.28)" d="m595.68 378.84-6.543 4.805-8.11 0.488 4.778 6.57 0.508 8.106 6.543-4.805 8.105-0.496-4.797-6.563-0.484-8.105" style="fill:#1266ac"/>
 <path transform="matrix(.13333 0 0 -.13333 0 101.28)" d="m424.2 379.14 6.563 4.777 8.117 0.457-4.77 6.594-0.476 8.113-6.563-4.797-8.093-0.465 4.753-6.574 0.469-8.105" style="fill:#1266ac"/>
 <path transform="matrix(.13333 0 0 -.13333 0 101.28)" d="m379.36 413.99 8.266 9.692c3.75 4.414 9.754 4.089 15.476-0.793 5.762-4.911 7.051-10.813 3.29-15.215l-8.258-9.696c-1.02-1.183-1.059-1.859 0.301-3l-2.95-2.238-7.968 6.801 1.765 3.23c1.36-1.152 2.016-1.003 3.02 0.176l8.3 9.727c1.653 1.933 1.497 4.289-1.093 6.484-2.649 2.258-5.02 2.07-6.668 0.137l-8.293-9.727c-1.016-1.179-1.055-1.855 0.262-2.976l-2.918-2.258-7.286 6.211 1.731 3.262c1.355-1.153 2.012-1.004 3.023 0.183" style="fill:#1266ac"/>
 <path transform="matrix(.13333 0 0 -.13333 0 101.28)" d="m352.82 446.28 17.473 13.082 3.281-4.383-5.469-18.464c-0.378-1.282-1.367-3.313-1.367-3.313s1.575 1.465 2.364 2.051l7.695 5.773c1.211 0.907 1.457 1.543 0.391 2.965l3.339 1.567 5.266-7.024-2.402-2.812c-1.067 1.425-1.77 1.406-2.993 0.488l-12.832-9.609c-1.25-0.938-1.433-1.582-0.359-3.008l-3.367-1.524-4.731 6.309 4.954 16.797c0.41 1.308 1.433 3.359 1.433 3.359s-1.609-1.484-2.508-2.156l-6.55-4.926c-1.25-0.926-1.438-1.558-0.375-2.996l-3.336-1.551-5.286 7.059 2.422 2.765c1.075-1.425 1.707-1.386 2.957-0.449" style="fill:#1266ac"/>
 <path transform="matrix(.13333 0 0 -.13333 0 101.28)" d="m359.54 479.75 4.551-9.18-2.91-2.273c-0.786 1.59-1.489 1.695-2.844 1.023l-14.363-7.109c-1.399-0.691-1.704-1.289-0.918-2.891l-3.567-0.918-4.543 9.18 2.903 2.277c0.793-1.593 1.445-1.718 2.839-1.027l14.368 7.117c1.359 0.668 1.699 1.282 0.918 2.883l3.566 0.918" style="fill:#1266ac"/>
 <path transform="matrix(.13333 0 0 -.13333 0 101.28)" d="m326.95 507.21 23.621-2.129 2.071-7.043-18.707-14.488c-1.36-1.047-1.516-1.613-1.047-3.184l-3.692-0.254-2.89 9.774 3.234 1.797c0.457-1.399 1.023-1.602 2.215-0.742l9.043 6.804c1.504 1.047 4.687 2.539 4.687 2.539s-3.508-0.379-5.351-0.281l-11.375 1.105c-1.528 0.106-1.836-0.546-1.407-1.992l-3.683-0.293-2.567 8.711 3.243 1.746c0.476-1.621 0.886-1.922 2.605-2.07" style="fill:#1266ac"/>
 <path transform="matrix(.13333 0 0 -.13333 0 101.28)" d="m344.43 544.2 1.922-21.152-3.516-1.133c-0.164 1.777-0.781 2.129-2.285 1.992l-15.969-1.465c-1.551-0.136-2.051-0.586-1.883-2.363l-3.672 0.481-1.843 20.222 6.519 0.598 0.844-2.793c-2.109-0.5-2.539-1.125-2.27-4.18l0.442-4.711 6.601 0.61-0.39 4.258c-0.164 1.816-0.535 2.46-1.953 2.332l0.437 2.988 6.528 0.597 1.023-2.863c-1.465-0.137-1.719-0.832-1.555-2.644l0.395-4.258 7.183 0.652-0.593 6.524c-0.262 2.832-1.106 3.293-3.086 3.476l0.3 3.02 6.821-0.188" style="fill:#1266ac"/>
 <path transform="matrix(.13333 0 0 -.13333 0 101.28)" d="m322.7 569.95-0.449-4.07 7.832-0.867 0.442 3.933c0.332 2.969-1 4.688-3.391 4.953-2.395 0.262-4.102-1.015-4.434-3.949zm24.668 11.36-0.898-8.094c-4.297-3.559-11.016 0.105-11.641-5.422l-0.359-3.281 5.223-0.574c1.503-0.176 2.121 0.117 2.316 1.89l3.504-1.16-1.133-10.09-3.672-0.398c0.195 1.816-0.332 2.238-1.848 2.402l-15.925 1.785c-1.512 0.168-2.129-0.164-2.325-1.929l-3.496 1.191 1.543 13.809c0.75 6.687 3.938 10.32 9.024 9.753 3.32-0.371 5.429-2.402 6.328-5.957 1.309 3.301 4.543 3.789 6.492 3.977 2.27 0.203 3.067 0.555 3.305 2.637l0.066 0.625 3.496-1.164" style="fill:#1266ac"/>
 <path transform="matrix(.13333 0 0 -.13333 0 101.28)" d="m353.05 598.94c-1.652-5.136-4.512-8.332-5.93-9.695l-5.176 3.25 0.762 2.383c3.274-0.028 5.324 2.59 6.203 5.305 0.664 2.07 0.391 4.55-1.816 5.261-1.902 0.606-3.223-0.554-5.36-4.59-2.128-4.14-5.57-7.851-10.871-6.14-5.175 1.66-6.613 7.226-4.714 13.113 1.445 4.504 3.804 7.617 5.132 8.977l4.895-3.125-0.75-2.325c-2.856-0.304-4.555-2.66-5.234-4.777-0.747-2.332-0.215-4.324 1.523-4.883 1.687-0.547 2.93 0.684 4.5 3.692 2.891 5.476 6.008 9.062 11.816 7.199 5.684-1.836 6.875-7.883 5.02-13.645" style="fill:#1266ac"/>
 <path transform="matrix(.13333 0 0 -.13333 0 101.28)" d="m365.22 628.44-4.68-9.118-3.555 0.973c0.813 1.582 0.481 2.203-0.867 2.902l-14.265 7.313c-1.387 0.707-2.051 0.597-2.864-0.992l-2.863 2.324 4.68 9.113 3.554-0.969c-0.808-1.586-0.515-2.187 0.872-2.898l14.253-7.316c1.36-0.692 2.051-0.598 2.875 0.988l2.86-2.32" style="fill:#1266ac"/>
 <path transform="matrix(.13333 0 0 -.13333 0 101.28)" d="m366.48 666.2c-1.692 0.852-2.727 0.945-4.434-1.387l-1.582-2.16 13.785-10.105c1.223-0.899 1.906-0.953 2.961 0.48l2.461-2.742-6.008-8.187-3.387 1.484c1.082 1.477 0.832 2.102-0.39 3l-13.797 10.113-1.582-2.156c-1.711-2.336-1.313-3.293 0.016-4.648l-2.207-2.032-5.047 4.641 14.511 19.797 5.965-3.391-1.265-2.707" style="fill:#1266ac"/>
 <path transform="matrix(.13333 0 0 -.13333 0 101.28)" d="m384.46 683.77c-1.36 0.8-4.152 3.136-4.152 3.136s2-3.125 2.683-4.504l2.942-6.941 5.148 4.805zm23.418-4.469-7.363-6.863-3.008 2.117c0.965 0.914 1.051 1.539-0.364 2.281l-1.992 1.016-7.16-6.684 0.844-2.082c0.64-1.531 1.375-1.336 2.41-0.363l1.902-3.157-6.343-5.925-3.02 2.121c1.172 1.093 1.356 1.687 0.684 3.254l-6.907 16.277c-0.437 0.996-1.089 1.301-2.363 0.113l-1.863 3.184 10.578 9.883 3.047-2.094c-1.301-1.215-1.137-1.789-0.117-2.297l15.867-8.047c1.445-0.773 2.051-0.703 3.254 0.426l1.914-3.16" style="fill:#1266ac"/>
 <path transform="matrix(.13333 0 0 -.13333 0 101.28)" d="m423.24 688.75c-4.582-2.836-8.828-3.43-10.793-3.551l-1.836 5.836 2.121 1.309c2.469-2.129 5.735-1.469 8.157 0.027 1.851 1.153 3.25 3.219 2.019 5.192-1.055 1.699-2.812 1.66-7.051-0.028-4.296-1.773-9.328-2.375-12.265 2.356-2.864 4.621-0.352 9.793 4.914 13.054 4.012 2.485 7.832 3.34 9.715 3.508l1.711-5.547-2.082-1.289c-2.372 1.621-5.184 0.926-7.082-0.246-2.079-1.289-2.965-3.156-2-4.707 0.937-1.515 2.675-1.375 5.82-0.105 5.754 2.304 10.449 3.015 13.672-2.168 3.133-5.071 0.129-10.449-5.02-13.641" style="fill:#1266ac"/>
 <path transform="matrix(.13333 0 0 -.13333 0 101.28)" d="m500.34 725.06c-1.848-0.25-2.168-0.879-1.977-2.332l0.285-2.122c0.196-1.414 0.547-1.726 1.477-1.601l-0.246-3.492c-3.899-0.793-4.563-2.504-10.52-3.305-7.984-1.078-15.269 1.895-16.636 12.047-1.262 9.316 4.148 14.851 12.847 16.023 5.219 0.703 9.231-0.82 10.949-1.531l-0.722-6.301-2.383-0.32c-1.184 2.762-3.723 3.59-6.543 3.207-4.988-0.672-7.258-3.855-6.414-10.078 0.84-6.27 3.504-8.695 8.406-8.035 1.192 0.16 2.637 0.715 3.43 1.269l-0.461 3.352c-0.195 1.461-0.625 1.988-2.527 1.73l-0.481-0.062 0.266 3.676 10.508 1.414 1.238-3.477-0.496-0.062" style="fill:#1266ac"/>
 <path transform="matrix(.13333 0 0 -.13333 0 101.28)" d="m525.5 736.23c-4.266 0.344-6.492-1.843-7.039-8.636s1.309-9.313 5.566-9.653c4.356-0.351 6.497 1.844 7.04 8.637 0.546 6.793-1.208 9.301-5.567 9.652zm-1.875-23.265c-8.25 0.668-13.766 4.949-12.937 15.254 0.832 10.301 6.953 13.652 15.214 12.984 8.387-0.676 13.809-4.953 12.981-15.254-0.832-10.304-6.867-13.66-15.258-12.984" style="fill:#1266ac"/>
 <path transform="matrix(.13333 0 0 -.13333 0 101.28)" d="m568.98 724.78c0.196 1.887-0.089 2.887-2.89 3.649l-2.571 0.707-4.507-16.504c-0.395-1.461-0.207-2.11 1.504-2.582l-1.672-3.282-9.805 2.676 0.187 3.696c1.754-0.485 2.247-0.02 2.657 1.441l4.5 16.5-2.578 0.707c-2.793 0.762-3.536 0.043-4.336-1.68l-2.688 1.332 2.531 6.379 23.68-6.472-1.023-6.786-2.989 0.219" style="fill:#1266ac"/>
 <path transform="matrix(.13333 0 0 -.13333 0 101.28)" d="m597.68 689.68-9.043 4.609 0.918 3.578c1.633-0.832 2.207-0.472 2.89 0.875l2.793 5.477-9.25 4.707-2.781-5.477c-0.691-1.347-0.637-2.023 0.945-2.84l-2.3-2.863-9.067 4.602 0.93 3.582c1.621-0.828 2.207-0.477 2.891 0.879l7.285 14.285c0.703 1.386 0.625 2.031-1.004 2.855l2.359 2.852 9.043-4.602-0.957-3.562c-1.59 0.808-2.144 0.496-2.859-0.899l-2.239-4.402 9.25-4.711 2.239 4.406c0.711 1.387 0.633 2.028-0.989 2.86l2.344 2.851 9.055-4.609-0.957-3.563c-1.594 0.813-2.152 0.496-2.863-0.89l-7.278-14.293c-0.679-1.348-0.633-2.028 0.957-2.832l-2.312-2.875" style="fill:#1266ac"/>
 <path transform="matrix(.13333 0 0 -.13333 0 101.28)" d="m629.86 693.98c-3.3 2.719-6.386 2.204-10.715-3.062-4.335-5.262-4.246-8.387-0.957-11.102 3.379-2.773 6.399-2.199 10.727 3.067 4.324 5.258 4.312 8.328 0.945 11.097zm-14.836-18.015c-6.394 5.261-8.464 11.926-1.89 19.91 6.558 7.98 13.504 7.226 19.898 1.957 6.496-5.344 8.496-11.957 1.938-19.93-6.575-7.984-13.442-7.285-19.946-1.937" style="fill:#1266ac"/>
 <path transform="matrix(.13333 0 0 -.13333 0 101.28)" d="m650.27 664.77 2.063-2.567c1.707-2.113 3.531-2.246 5.086-0.992 1.531 1.23 1.808 2.883 0.051 5.07l-2.102 2.598zm-3.437-2.762-6.172-4.977 2.461-3.051c1.863-2.324 4.004-2.492 5.867-0.98 1.848 1.477 2.094 3.734 0.156 6.125zm-6.504-11.246-8.437 10.48 2.304 2.883c1.121-1.387 1.824-1.332 2.996-0.383l12.493 10.059c1.218 0.976 1.375 1.625 0.261 3.012l3.313 1.64 7.883-9.785c4.246-5.273 4.746-9.789 0.996-12.809-1.731-1.402-4.563-1.441-6.661-0.39 1.305-3.403 0.25-6.43-2.113-8.328-3.98-3.215-8.816-1.614-13.035 3.621" style="fill:#1266ac"/>
 <path transform="matrix(.13333 0 0 -.13333 0 101.28)" d="m682.73 622.39-11.339-5.785c-5.157-2.637-10.582-0.047-14 6.652-3.442 6.746-2.375 12.687 2.781 15.32l11.347 5.789c1.399 0.711 1.692 1.313 0.872 2.899l3.582 0.926 4.753-9.325-2.871-2.308c-0.808 1.582-1.464 1.699-2.847 0.984l-11.391-5.805c-2.266-1.16-3.016-3.394-1.48-6.406 1.582-3.098 3.855-3.84 6.113-2.68l11.387 5.809c1.394 0.707 1.687 1.309 0.894 2.856l3.559 0.968 4.351-8.531-2.847-2.359c-0.801 1.589-1.465 1.707-2.864 0.996" style="fill:#1266ac"/>
 <path transform="matrix(.13333 0 0 -.13333 0 101.28)" d="m692.8 596.52-1.059 3.953-7.613-2.012 1.012-3.828c0.761-2.891 2.628-4.016 4.945-3.399 2.32 0.618 3.457 2.442 2.715 5.286zm-18.899-19.512-2.082 7.879c2.719 4.863 10.317 3.879 8.891 9.258l-0.852 3.195-5.078-1.348c-1.465-0.39-1.933-0.879-1.472-2.597l-3.696-0.196-2.597 9.825 3.293 1.687c0.468-1.758 1.125-1.953 2.585-1.57l15.5 4.101c1.465 0.379 1.922 0.918 1.465 2.645l3.692 0.148 3.554-13.437c1.719-6.504 0.059-11.047-4.89-12.356-3.235-0.847-5.918 0.274-8.047 3.262-0.031-3.555-2.871-5.176-4.621-6.055-2.039-0.996-2.656-1.621-2.129-3.652l0.168-0.598-3.684-0.191" style="fill:#1266ac"/>
 <path transform="matrix(.13333 0 0 -.13333 0 101.28)" d="m687.02 543.28c-0.094 1.875-0.692 2.246-2.157 2.168l-2.136-0.105c-1.426-0.071-1.77-0.395-1.719-1.328l-3.457 0.535c-0.461 3.957-2.113 4.765-2.406 10.769-0.399 8.047 3.175 15.051 13.41 15.559 9.383 0.461 14.453-5.399 14.883-14.168 0.253-5.246-1.602-9.133-2.461-10.773l-6.211 1.25-0.118 2.402c2.852 0.945 3.887 3.398 3.75 6.25-0.253 5.027-3.23 7.558-9.503 7.246-6.317-0.313-8.961-2.754-8.719-7.695 0.058-1.2 0.488-2.696 0.976-3.528l3.379 0.168c1.477 0.078 2.032 0.457 1.934 2.375l-0.02 0.489 3.645-0.579 0.515-10.586-3.562-0.937-0.023 0.488" style="fill:#1266ac"/>
 <path transform="matrix(.13333 0 0 -.13333 0 101.28)" d="m672.15 512.36 3.211 20.996 3.684 0.254c-0.266-1.765 0.242-2.246 1.75-2.48l15.848-2.422c1.543-0.234 2.129 0.078 2.39 1.848l3.449-1.34-3.066-20.078-6.476 0.988-0.133 2.906c2.156-0.015 2.722 0.481 3.191 3.52l0.715 4.668-6.566 1.004-0.633-4.227c-0.282-1.809-0.078-2.52 1.34-2.734l-1.157-2.793-6.472 0.984-0.301 3.027c1.453-0.222 1.851 0.391 2.137 2.188l0.644 4.23-7.14 1.09-0.985-6.472c-0.422-2.813 0.281-3.465 2.168-4.114l-1.023-2.859-6.575 1.816" style="fill:#1266ac"/>
 <path transform="matrix(.13333 0 0 -.13333 0 101.28)" d="m681.06 470.72-20.426 7.703 1.929 5.129 18.52 5.293c1.285 0.379 3.523 0.625 3.523 0.625s-2.082 0.547-3 0.898l-9.004 3.399c-1.414 0.523-2.078 0.398-2.71-1.274l-3.11 1.985 3.11 8.215 3.652-0.532c-0.625-1.66-0.227-2.246 1.18-2.769l15.007-5.664c1.457-0.547 2.102-0.364 2.727 1.308l3.098-2.035-2.786-7.371-16.816-4.844c-1.328-0.359-3.602-0.586-3.602-0.586s2.118-0.566 3.165-0.957l7.664-2.898c1.457-0.547 2.097-0.363 2.722 1.308l3.11-1.984-3.11-8.254-3.64 0.57c0.625 1.668 0.254 2.188-1.203 2.735" style="fill:#1266ac"/>
 <path transform="matrix(.13333 0 0 -.13333 0 101.28)" d="m649.96 460.59c2.883 4.551 6.434 6.934 8.152 7.902l4.211-4.445-1.34-2.109c-3.164 0.839-5.796-1.172-7.324-3.582-1.172-1.848-1.512-4.321 0.449-5.559 1.692-1.074 3.254-0.262 6.329 3.105 3.097 3.477 7.355 6.219 12.062 3.243 4.59-2.903 4.602-8.645 1.301-13.875-2.531-3.996-5.598-6.426-7.219-7.403l-3.953 4.239 1.309 2.07c2.839-0.422 5.066 1.433 6.25 3.316 1.304 2.075 1.296 4.133-0.247 5.11-1.503 0.949-3.015 0.058-5.293-2.461-4.16-4.578-8.078-7.274-13.23-4.016-5.051 3.188-4.688 9.34-1.457 14.465" style="fill:#1266ac"/>
 <path transform="matrix(.13333 0 0 -.13333 0 101.28)" d="m630.53 434.7 6.809 7.66 3.199-1.828c-1.18-1.336-1.015-2.019 0.11-3.027l11.992-10.652c1.164-1.035 1.828-1.094 3.008 0.23l2.199-2.957-6.809-7.656-3.203 1.828c1.191 1.336 1.055 1.988-0.105 3.027l-11.985 10.653c-1.133 1.007-1.836 1.093-3.015-0.235l-2.2 2.957" style="fill:#1266ac"/>
 <path transform="matrix(.13333 0 0 -.13333 0 101.28)" d="m613.48 419.7c4.204 3.371 8.352 4.477 10.293 4.828l2.524-5.578-1.946-1.55c-2.714 1.816-5.878 0.769-8.093-1.016-1.711-1.359-2.844-3.586-1.391-5.391 1.25-1.562 2.988-1.308 7.004 0.875 4.055 2.278 8.977 3.481 12.449-0.867 3.403-4.238 1.535-9.676-3.301-13.547-3.679-2.945-7.371-4.254-9.226-4.656l-2.363 5.305 1.914 1.531c2.547-1.328 5.261-0.293 7.004 1.105 1.902 1.524 2.566 3.485 1.421 4.911-1.113 1.386-2.832 1.035-5.796-0.606-5.43-2.976-10-4.246-13.821 0.52-3.738 4.644-1.394 10.347 3.328 14.136" style="fill:#1266ac"/>
 <path transform="matrix(.13333 0 0 -.13333 0 101.28)" d="m465.74 359.35-13.672 3.914 0.285 3.722 1.754-0.507c1.797-0.52 2.375-0.129 2.786 1.328l3.984 13.925c-0.977-0.519-2.617-0.742-5.399-0.265l1.153 4.023c2.976-0.105 4.785 0.215 7.847 2.989l5.571-1.59-6.047-21.114c-0.41-1.457-0.051-2.121 1.711-2.617l1.758-0.5-1.731-3.308" style="fill:#1266ac"/>
 <path transform="matrix(.13333 0 0 -.13333 0 101.28)" d="m494.09 379.02c-2.492 0.235-4.231-0.632-4.387-2.363-0.164-1.765 1.348-3.301 3.723-4.648 2.5 0.89 4.265 2.109 4.441 3.886 0.156 1.719-1.426 2.903-3.777 3.125zm-1.074-11.394c-3.059-1.106-5.305-2.641-5.52-4.895-0.187-2 1.758-3.652 4.68-3.933 2.847-0.266 5.156 0.945 5.34 2.945 0.214 2.309-1.75 4.231-4.5 5.883zm-1.223-12.949c-7.539 0.703-12.051 4.168-11.609 8.738 0.371 3.945 3.718 5.867 7.371 7.051-2.969 1.711-5.457 3.816-5.164 6.972 0.386 4.036 5.078 6.368 12.085 5.704 6.692-0.625 11.047-3.809 10.665-7.852-0.29-3.145-3.082-4.766-6.329-5.887 3.364-1.836 6.313-4.347 5.93-8.301-0.43-4.562-5.637-7.121-12.949-6.425" style="fill:#1266ac"/>
 <path transform="matrix(.13333 0 0 -.13333 0 101.28)" d="m526.43 378.76c-3.281-0.317-4.973-2.676-4.649-6.047 0.301-3.145 2.176-5.067 5.332-4.766 2.879 0.274 5.371 2.305 5.02 5.949-0.227 2.391-1.797 5.235-5.703 4.864zm-0.086-24.172c-1.82-0.176-5.293 0.105-6.485 0.851l-0.382 3.907c1.34-0.371 3.269-0.539 5.007-0.371 4.875 0.468 7.688 2.929 8.293 7.769-0.886-1.473-3.437-2.879-6.14-3.141-6.699-0.636-10.891 2.899-11.418 8.485-0.559 5.715 3.574 10.234 10.801 10.918 8.379 0.812 12.754-4.219 13.457-11.453 0.832-8.645-2.942-15.989-13.133-16.965" style="fill:#1266ac"/>
 <path transform="matrix(.13333 0 0 -.13333 0 101.28)" d="m569.4 363.23-13.731-3.625-1.672 3.34 1.77 0.457c1.804 0.481 2.097 1.117 1.718 2.582l-3.703 13.992c-0.574-0.937-1.863-1.96-4.5-2.988l-1.074 4.055c2.617 1.426 4.016 2.613 5.227 6.582l5.593 1.473 5.606-21.231c0.391-1.465 1.047-1.844 2.805-1.379l1.765 0.473 0.196-3.731" style="fill:#1266ac"/>
 <path transform="matrix(.13333 0 0 -.13333 0 101.28)" d="m13.047 187.34c0 4.91 0.125 7.879 0.125 20.672 0 10.207-0.125 18.34-0.2617 29.972l-0.5079 0.516-12.402 0.645v4.394h36.945v-4.394l-10.461-0.645-0.5156-0.516c-0.1368-9.687-0.2657-30.625-0.2657-50.128 0-16.27 3.75-27.254 20.93-27.254 17.957 0 23.125 10.457 23.125 29.707 0 16.797-0.2539 35.015-0.5195 47.675l-0.5195 0.516-11.883 0.645v4.394h34.238v-4.394l-12.668-0.645-0.504-0.516c-0.3906-13.828-0.3906-32.812-0.2656-48.839 0.1289-22.215-10.332-34.102-32.043-34.102-21.309 0-32.547 10.977-32.547 32.297" style="fill:#e7e3e4"/>
 <path transform="matrix(.13333 0 0 -.13333 0 101.28)" d="m102.06 160.72 12.664 0.644 0.515 0.52c0.383 13.828 0.383 24.031 0.383 36.953 0 12.91 0 20.019-0.383 39.14l-0.515 0.516-12.664 0.645v4.394h24.675c15.762-22.09 33.723-47.93 46.641-66.406h0.254c-0.254 24.805-0.52 48.191-0.774 60.851l-0.515 0.516-11.883 0.645v4.394h34.227v-4.394l-12.657-0.645-0.515-0.516c-0.395-13.828-0.395-24.035-0.395-56.457v-25.839h-6.324c-16.02 22.734-35.141 49.484-51.418 72.734h-0.254c0.129-30.223 0.52-53.613 0.77-66.531l0.519-0.52 11.887-0.644v-4.395h-34.238v4.395" style="fill:#e7e3e4"/>
 <path transform="matrix(.13333 0 0 -.13333 0 101.28)" d="m205.68 160.72 12.656 0.644 0.515 0.52c0.266 4.004 0.391 21.441 0.391 38.886 0 17.442-0.125 32.813-0.391 37.207l-0.515 0.516-12.656 0.645v4.394h39.265v-4.394l-12.527-0.645-0.52-0.516c-0.254-3.488-0.386-21.449-0.386-38.886 0-17.442 0.261-32.813 0.386-37.207l0.52-0.52 12.527-0.644v-4.395h-39.265v4.395" style="fill:#e7e3e4"/>
 <path transform="matrix(.13333 0 0 -.13333 0 101.28)" d="m261.76 238.75-7.766 0.391v4.394h33.86v-4.394l-11.504-0.516-0.52-0.52c7.238-18.73 15.766-41.335 24.301-63.171h0.254c6.328 17.566 17.305 48.836 21.57 63.3l-0.383 0.391-10.465 0.516v4.394h28.551v-4.394l-7.5-0.391c-6.718-17.051-22.215-57.227-32.422-83.711h-3.496c-13.3 32.297-24.8 60.461-34.48 83.711" style="fill:#e7e3e4"/>
 <path transform="matrix(.13333 0 0 -.13333 0 101.28)" d="m348.7 160.72 12.668 0.644 0.52 0.52c0.125 5.945 0.379 21.441 0.379 38.886 0 17.442-0.254 32.04-0.379 37.207l-0.52 0.516-12.668 0.645v4.394h56.723l5.039 2.199h1.934l0.906-28.293h-2.586c-4.652 13.047-8.781 19.504-10.981 19.637l-24.421 1.289-0.379-0.64c-0.129-5.95-0.391-19.641-0.391-34.114 5.816 0 18.477 0.391 21.836 0.645l0.516 0.519 4.648 9.043h2.449c-0.125-3.617-0.254-9.172-0.254-12.66 0-3.355 0.129-10.594 0.254-14.469h-2.449l-4.648 10.719-0.516 0.52c-4.008 0.129-15.512 0.39-21.836 0.39 0-16.414 0.262-29.59 0.391-36.172l0.379-0.656 26.359 1.43c2.195 0.125 8.008 5.43 12.664 20.672h2.969c-1.68-25.196-2.063-27.266-4.258-27.266h-64.348v4.395" style="fill:#e7e3e4"/>
 <path transform="matrix(.13333 0 0 -.13333 0 101.28)" d="m487.59 221.06c0 7.101-3.098 12.402-8.918 15.117-3.223 1.555-7.227 2.453-15.371 2.453h-4.258l-0.391-0.391c-0.129-5.546-0.254-22.48-0.39-37.589 22.48 0.644 29.328 7.882 29.328 20.41zm-55.422-60.332 12.922 0.644 0.515 0.52c0.125 3.75 0.391 21.441 0.391 38.886 0 17.442-0.266 31.383-0.391 37.207l-0.515 0.516-12.922 0.645v4.394c11.633 0 24.031 0.254 30.613 0.254 10.207 0 16.157-0.644 20.93-2.07 12.402-3.739 17.832-11.758 17.832-20.535 0-12.786-8.652-18.86-19.246-22.219v-0.266c3.355-3.863 9.168-14.461 16.656-27.644 3.235-5.684 6.34-9.942 10.598-10.203l2.844-0.129v-4.395h-19.375l-0.52 0.52c-4.785 9.683-8.145 17.566-16.277 32.039-1.68 2.968-3.235 5.422-5.168 7.617-4.649-0.645-9.043-0.899-12.793-0.899-0.125-15.371 0.261-29.843 0.39-33.718l0.52-0.52 11.883-0.644v-4.395h-38.887v4.395" style="fill:#e7e3e4"/>
 <path transform="matrix(.13333 0 0 -.13333 0 101.28)" d="m528.55 183.59h2.976c4.524-16.406 11.883-23.262 20.926-23.262 10.598 0 17.309 7.109 17.309 16.406 0 22.481-39.66 16.797-39.66 45.215 0 12.024 9.433 22.996 25.84 22.996 8.398 0 15.117-2.586 16.535-2.965l3.875 3.75h2.453l0.777-28.293h-2.715c-5.425 15.754-12.527 22.215-21.316 22.215-7.617 0-14.207-5.039-14.207-13.562 0-21.582 40.301-18.211 40.301-45.481 0-13.043-9.817-25.574-29.961-25.574-5.567 0-12.149 1.289-17.832 5.039l-2.586-5.039h-2.715v28.555" style="fill:#e7e3e4"/>
 <path transform="matrix(.13333 0 0 -.13333 0 101.28)" d="m598.44 160.72 12.668 0.644 0.52 0.52c0.254 4.004 0.379 21.441 0.379 38.886 0 17.442-0.125 32.813-0.379 37.207l-0.52 0.516-12.668 0.645v4.394h39.282v-4.394l-12.539-0.645-0.508-0.516c-0.266-3.488-0.395-21.449-0.395-38.886 0-17.442 0.258-32.813 0.395-37.207l0.508-0.52 12.539-0.644v-4.395h-39.282v4.395" style="fill:#e7e3e4"/>
 <path transform="matrix(.13333 0 0 -.13333 0 101.28)" d="m666.53 160.72 13.828 0.644 0.508 0.52c0.141 4.773 0.395 21.441 0.395 38.886 0 17.442 0 31.778-0.395 36.305l-0.379 0.649h-15.383c-2.703 0-5.933-4.661-11.226-20.286h-2.59l1.035 28.293h2.324l3.75-2.199h57.997l3.75 2.199h2.328l1.035-28.293h-2.59c-5.422 15.754-8.523 20.286-11.238 20.286h-15.371l-0.391-0.649c-0.129-3.101-0.383-20.547-0.383-37.984 0-17.442 0.254-32.563 0.383-37.207l0.516-0.52 14.218-0.644v-4.395h-42.121v4.395" style="fill:#e7e3e4"/>
 <path transform="matrix(.13333 0 0 -.13333 0 101.28)" d="m758.39 160.72 12.793 0.644 0.515 0.52c0.266 9.695 0.391 15.633 0.391 33.328-10.723 16.277-22.481 35.012-28.289 43.535l-8.664 0.391v4.394h32.949v-4.394l-9.309-0.516-0.507-0.52c6.332-10.593 15.238-25.449 22.089-36.042h0.254c7.114 12.527 15.371 27.781 19.516 36.171l-0.395 0.391-9.043 0.516v4.394h27.903v-4.394l-7.879-0.391c-7.492-10.977-17.309-28.289-26.352-43.145 0-17.832 0.254-22.089 0.383-33.718l0.52-0.52 13.172-0.644v-4.395h-40.047v4.395" style="fill:#e7e3e4"/>
 <path transform="matrix(.13333 0 0 -.13333 0 101.28)" d="m926.73 200c0 26.094-10.207 39.141-26.613 39.141s-26.863-13.047-26.863-39.141c0-26.102 10.203-39.148 26.609-39.148 16.407 0 26.867 13.046 26.867 39.148zm-67.433-1.301c0 29.328 17.961 46.25 40.82 46.25 25.711 0 40.567-18.086 40.567-43.66 0-29.324-17.957-46.25-40.821-46.25-25.715 0-40.566 18.086-40.566 43.66" style="fill:#e7e3e4"/>
 <path transform="matrix(.13333 0 0 -.13333 0 101.28)" d="m955.56 160.72 12.656 0.769 0.515 0.52c0.125 4.519 0.391 21.316 0.391 38.761 0 17.442-0.266 32.684-0.391 37.207l-0.515 0.516-12.656 0.645v4.394h56.971l5.03 2.199h1.94l0.9-28.293h-2.58c-4.65 13.047-8.79 19.637-10.97 19.754l-24.682 1.172-0.391-0.64c-0.129-3.75-0.39-19.641-0.39-34.114 5.808 0 18.476 0.391 21.583 0.645l0.52 0.519 4.64 9.043h2.46c-0.13-3.617-0.26-9.172-0.26-12.66 0-3.355 0.13-11.504 0.26-15.367h-2.46l-4.91 11.617-0.51 0.52c-3.757 0.129-14.983 0.39-21.323 0.39 0-16.414 0-31.004 0.39-36.308l0.52-0.52 13.953-0.769v-4.395h-40.691v4.395" style="fill:#e7e3e4"/>
 <path transform="matrix(.13333 0 0 -.13333 0 101.28)" d="m42.117 44.961c0 28.293 19.113 44.949 44.309 44.949 9.5586 0 15.117-1.5508 20.027-2.9649l4.262 3.75h1.93l0.91-28.293h-2.715c-6.453 17.305-15.633 22.215-25.184 22.215-14.992 0-29.59-11.238-29.59-38.367 0-21.191 10.594-40.438 32.555-40.438 6.332 0 13.176 1.8047 13.176 3.875 0 4.3945 0.129 16.152-0.254 26.106l-0.52 0.5078-12.664 0.6523v4.3867h36.172v-4.3867l-9.297-0.6523-0.515-0.5078c-0.254-8.2735-0.395-17.578-0.254-27.531-1.555-3.2227-13.957-8.2617-27.004-8.2617-26.359 0-45.344 16.406-45.344 44.961" style="fill:#e7e3e4"/>
 <path transform="matrix(.13333 0 0 -.13333 0 101.28)" d="m208.14 44.961c0 26.094-10.215 39.141-26.621 39.141-16.411 0-26.868-13.047-26.868-39.141 0-26.102 10.207-39.148 26.614-39.148 16.402 0 26.875 13.047 26.875 39.148zm-67.446-1.3007c0 29.328 17.961 46.25 40.825 46.25 25.711 0 40.562-18.086 40.562-43.66 0-29.324-17.957-46.25-40.816-46.25-25.715 0-40.571 18.086-40.571 43.66" style="fill:#e7e3e4"/>
 <path transform="matrix(.13333 0 0 -.13333 0 101.28)" d="m254.77 5.6836 13.821 0.64454 0.527 0.51953c0.125 4.7851 0.383 21.445 0.383 38.887s0 31.777-0.383 36.297l-0.391 0.6445h-15.378c-2.707 0-5.942-4.6485-11.235-20.274h-2.586l1.035 28.293h2.325l3.75-2.1992h58l3.75 2.1992h2.324l1.031-28.293h-2.574c-5.434 15.754-8.535 20.274-11.242 20.274h-15.379l-0.383-0.6445c-0.137-3.0938-0.391-20.539-0.391-37.977 0-17.441 0.254-32.562 0.391-37.207l0.52-0.51953 14.207-0.64454v-4.3945h-42.122v4.3945" style="fill:#e7e3e4"/>
 <path transform="matrix(.13333 0 0 -.13333 0 101.28)" d="m325.32 5.6836 12.66 0.64454 0.516 0.51953c0.125 4.9101 0.391 21.445 0.391 38.887s-0.266 33.203-0.391 37.207l-0.516 0.5156-12.66 0.6446v4.3945h37.461v-4.3945l-10.718-0.6446-0.52-0.5156c-0.254-4.0039-0.383-19.25-0.383-33.723h42.758c0.125 16.016-0.266 30.754-0.395 33.723l-0.515 0.5156-10.711 0.6446v4.3945h37.461v-4.3945l-12.668-0.6446-0.508-0.5156c-0.137-3.8789-0.391-21.449-0.391-38.887 0-17.441 0.254-31.523 0.391-37.207l0.508-0.51953 12.668-0.64454v-4.3945h-37.461v4.3945l10.711 0.64454 0.515 0.51953c0.129 4.3906 0.395 20.41 0.395 35.652h-42.758c0-16.406 0.129-28.289 0.383-35.652l0.52-0.51953 10.718-0.64454v-4.3945h-37.461v4.3945" style="fill:#e7e3e4"/>
 <path transform="matrix(.13333 0 0 -.13333 0 101.28)" d="m430.74 5.6836 12.664 0.64454 0.52 0.51953c0.129 5.9453 0.383 21.445 0.383 38.887s-0.254 32.039-0.383 37.207l-0.52 0.5156-12.664 0.6446v4.3945h56.719l5.039 2.1992h1.934l0.898-28.293h-2.578c-4.649 13.047-8.777 19.504-10.977 19.629l-24.422 1.289-0.382-0.6445c-0.137-5.9375-0.391-19.629-0.391-34.102 5.82 0 18.477 0.3906 21.836 0.6446l0.52 0.5195 4.648 9.043h2.449c-0.129-3.6133-0.254-9.1719-0.254-12.668 0-3.3477 0.125-10.586 0.254-14.461h-2.449l-4.648 10.723-0.52 0.5156c-4.004 0.1289-15.508 0.3828-21.836 0.3828 0-16.398 0.254-29.582 0.391-36.164l0.382-0.65625 26.356 1.4297c2.195 0.125 8.008 5.4297 12.656 20.672h2.981c-1.68-25.195-2.075-27.266-4.27-27.266h-64.336v4.3945" style="fill:#e7e3e4"/>
 <path transform="matrix(.13333 0 0 -.13333 0 101.28)" d="m514.21 5.6836 12.652 0.64454 0.52 0.51953c0.39 13.816 0.39 24.02 0.39 36.953 0 12.91 0 20.02-0.39 39.141l-0.52 0.5156-12.652 0.6446v4.3945h24.668c15.769-22.09 33.719-47.93 46.641-66.406h0.261c-0.261 24.805-0.515 48.184-0.781 60.852l-0.508 0.5156-11.894 0.6446v4.3945h34.238v-4.3945l-12.664-0.6446-0.512-0.5156c-0.39-13.828-0.39-24.035-0.39-56.457v-25.84h-6.329c-16.023 22.746-35.132 49.484-51.414 72.734h-0.261c0.125-30.234 0.515-53.613 0.769-66.531l0.52-0.51953 11.883-0.64454v-4.3945h-34.227v4.3945" style="fill:#e7e3e4"/>
 <path transform="matrix(.13333 0 0 -.13333 0 101.28)" d="m676.99 26.094c0 12.273-8.398 17.051-19.765 17.051h-13.567c-0.125-16.406 0.266-29.453 0.395-36.297l0.64-0.51953c2.453-0.12891 4.785-0.12891 6.328-0.12891 17.446 0 25.969 7.2383 25.969 19.895zm-25.183 22.746c15.234 0 19.121 7.2266 19.121 17.176 0 6.8477-2.461 12.012-7.754 14.727-3.363 1.8086-8.149 2.8437-15.246 2.8437-0.645 0-2.071 0-3.36-0.1289l-0.515-0.6445c-0.129-6.7187-0.52-19.375-0.395-33.973zm-33.989-43.156 12.668 0.64454 0.52 0.51953c0.125 4.5195 0.379 21.445 0.379 38.887s-0.254 31.523-0.379 37.207l-0.52 0.5156-12.668 0.6446v4.3945c9.563 0 20.547 0.2539 28.164 0.2539 9.438 0 16.672-0.7695 22.485-2.5898 10.203-3.2188 16.402-9.8125 16.402-19.246 0-11.102-7.359-17.695-15.762-19.758v-0.2618c13.704-0.6445 21.836-8.6523 21.836-19.121 0-17.57-15.757-26.738-40.816-26.738-8.399 0-21.965 0.2539-32.309 0.2539v4.3945" style="fill:#e7e3e4"/>
 <path transform="matrix(.13333 0 0 -.13333 0 101.28)" d="m718.86 32.297c0 4.9101 0.129 7.8789 0.129 20.672 0 10.207-0.129 18.34-0.254 29.973l-0.515 0.5156-12.402 0.6446v4.3945h36.953v-4.3945l-10.469-0.6446-0.52-0.5156c-0.129-9.6875-0.261-30.617-0.261-50.129 0-16.281 3.75-27.254 20.933-27.254 17.961 0 23.125 10.457 23.125 29.707 0 16.797-0.261 35.008-0.515 47.676l-0.516 0.5156-11.887 0.6446v4.3945h34.231v-4.3945l-12.657-0.6446-0.519-0.5156c-0.391-13.828-0.391-32.812-0.254-48.84 0.129-22.215-10.344-34.102-32.039-34.102-21.32 0-32.563 10.988-32.563 32.297" style="fill:#e7e3e4"/>
 <path transform="matrix(.13333 0 0 -.13333 0 101.28)" d="m863.3 66.016c0 7.0977-3.106 12.402-8.914 15.109-3.235 1.5508-7.239 2.4609-15.371 2.4609h-4.27l-0.383-0.3906c-0.133-5.5586-0.261-22.48-0.386-37.59 22.476 0.6445 29.324 7.8828 29.324 20.41zm-55.43-60.332 12.93 0.64454 0.508 0.51953c0.136 3.75 0.39 21.445 0.39 38.887s-0.254 31.394-0.39 37.207l-0.508 0.5156-12.93 0.6446v4.3945c11.633 0 24.031 0.2539 30.625 0.2539 10.203 0 16.152-0.6445 20.93-2.0586 12.398-3.75 17.832-11.758 17.832-20.547 0-12.793-8.664-18.859-19.262-22.219v-0.2656c3.359-3.875 9.172-14.461 16.672-27.645 3.23-5.6718 6.328-9.9414 10.598-10.203l2.839-0.12891v-4.3945h-19.382l-0.52 0.51953c-4.773 9.6836-8.137 17.566-16.277 32.039-1.672 2.9687-3.227 5.4296-5.168 7.6171-4.649-0.6445-9.043-0.8984-12.781-0.8984-0.129-15.371 0.253-29.844 0.386-33.719l0.508-0.51953 11.887-0.64454v-4.3945h-38.887v4.3945" style="fill:#e7e3e4"/>
 <path transform="matrix(.13333 0 0 -.13333 0 101.28)" d="m901.04 44.961c0 28.293 19.11 44.949 44.309 44.949 9.558 0 15.117-1.5508 20.015-2.9649l4.27 3.75h1.934l0.91-28.293h-2.715c-6.457 17.305-15.625 22.215-25.188 22.215-14.992 0-29.59-11.238-29.59-38.367 0-21.191 10.594-40.438 32.559-40.438 6.328 0 13.176 1.8047 13.176 3.875 0 4.3945 0.125 16.152-0.254 26.106l-0.52 0.5078-12.668 0.6523v4.3867h36.172v-4.3867l-9.297-0.6523-0.515-0.5078c-0.254-8.2735-0.391-17.578-0.254-27.531-1.555-3.2227-13.953-8.2617-27-8.2617-26.359 0-45.344 16.406-45.344 44.961" style="fill:#e7e3e4"/>
</svg>
