<?xml version="1.0" encoding="UTF-8" standalone="no"?>
<!-- Created with Inkscape (http://www.inkscape.org/) -->

<svg
   version="1.1"
   id="svg698"
   width="804.63287"
   height="311.07837"
   viewBox="0 0 804.63288 311.07837"
   sodipodi:docname="firemink.svg"
   inkscape:version="1.1.2 (b8e25be8, 2022-02-05)"
   xmlns:inkscape="http://www.inkscape.org/namespaces/inkscape"
   xmlns:sodipodi="http://sodipodi.sourceforge.net/DTD/sodipodi-0.dtd"
   xmlns="http://www.w3.org/2000/svg"
   xmlns:svg="http://www.w3.org/2000/svg">
  <defs
     id="defs702" />
  <sodipodi:namedview
     id="namedview700"
     pagecolor="#ffffff"
     bordercolor="#666666"
     borderopacity="1.0"
     inkscape:pageshadow="2"
     inkscape:pageopacity="0.0"
     inkscape:pagecheckerboard="0"
     showgrid="false"
     inkscape:snap-global="false"
     inkscape:zoom="0.91240169"
     inkscape:cx="341.40665"
     inkscape:cy="-31.236242"
     inkscape:window-width="1920"
     inkscape:window-height="1027"
     inkscape:window-x="1680"
     inkscape:window-y="25"
     inkscape:window-maximized="1"
     inkscape:current-layer="g704"
     showguides="true"
     inkscape:guide-bbox="true"
     inkscape:snap-center="true"
     fit-margin-top="0"
     fit-margin-left="0"
     fit-margin-right="0"
     fit-margin-bottom="0"
     showborder="true"
     inkscape:showpageshadow="false"
     borderlayer="false">
    <inkscape:grid
       type="xygrid"
       id="grid22145"
       originx="-124.83288"
       originy="109.03288" />
  </sodipodi:namedview>
  <g
     inkscape:groupmode="layer"
     inkscape:label="Image"
     id="g704"
     transform="translate(297.89774,-156.92138)">
    <path
       style="fill:#000000;fill-opacity:1;stroke-width:15.1022;stroke-miterlimit:4;stroke-dasharray:none"
       d="m -165.89484,466.80205 c -4.39279,-2.16633 -12.38256,-10.06303 -16.38501,-16.19418 -4.01536,-6.15091 -4.85893,-10.12475 -3.12012,-14.69815 0.4011,-1.05499 0.85063,-3.78533 0.99895,-6.06739 l 0.26965,-4.14923 -5.31101,-1.8699 c -2.92106,-1.02846 -7.28028,-2.99661 -9.68717,-4.37368 -2.40689,-1.37709 -3.59444,-1.65612 -5.38244,-2.50379 -7.48996,-3.55087 -11.16171,-4.92858 -22.39149,-10.81635 -2.86644,-1.50288 -7.3617,-4.46059 -9.98948,-6.5727 -2.62776,-2.11211 -7.29511,-5.6177 -10.37186,-7.79022 -6.64065,-4.68898 -20.24141,-18.02518 -25.25942,-24.76809 -5.00253,-6.72209 -10.41868,-15.84043 -15.09105,-25.40652 -3.01407,-6.17091 -4.68153,-11.10899 -6.80524,-20.15326 -3.4272,-14.59539 -4.20085,-26.21073 -2.84724,-42.74714 1.05528,-12.89174 2.85936,-19.26982 10.92715,-38.63153 4.04683,-9.71187 14.10519,-28.13838 20.1363,-36.88887 10.36492,-15.0384 22.77075,-17.34761 28.40289,-5.28688 1.50929,3.23201 2.52241,4.3779 2.46864,13.83117 0,0 0.21975,6.59683 -0.8689,11.43465 -1.08864,4.83782 -8.02587,17.1819 -8.02587,17.1819 -11.97251,25.63084 -13.93594,31.94341 -15.34298,49.32862 -0.67809,8.37853 -0.56983,11.22457 0.75993,19.97894 1.88661,12.42029 3.36126,15.64076 16.20136,35.38209 15.69026,24.12334 23.0597,29.97776 35.00299,27.807 8.71116,-1.58331 15.29912,-6.35638 20.00528,-14.49412 1.81968,-3.14649 4.9707,-7.51899 7.00229,-9.71667 2.03158,-2.19768 5.12462,-5.76274 6.87339,-7.92234 3.03124,-3.74333 13.78323,-13.35451 25.55687,-22.84524 2.99895,-2.41744 7.50481,-6.19347 10.01303,-8.39115 2.50822,-2.19768 7.75437,-6.14174 11.65811,-8.76458 9.978,-6.704 14.79366,-10.73573 23.31885,-19.52278 7.263946,-7.48708 14.999061,-17.87588 18.560481,-24.92806 5.28162,-10.45843 12.409199,-20.88695 19.276969,-28.2045 12.22034,-13.02068 22.883891,-20.06233 36.562178,-24.14377 18.123588,-5.40785 39.629933,-14.38957 49.745594,-20.77532 2.764133,-1.74492 2.998036,-2.15973 2.549194,-4.52077 -0.27182,-1.42975 -0.98227,-3.57064 -1.578809,-4.75755 -1.633522,-3.2502 -1.312835,-6.90201 0.944374,-10.75365 2.504981,-4.27442 5.934633,-6.17002 11.157131,-6.16666 5.327142,0.003 9.330862,2.19296 14.945727,8.17342 4.092611,4.3591 5.149201,5.02093 10.495886,6.57446 3.269844,0.95011 6.974619,2.62605 8.232827,3.72434 1.258218,1.09828 4.64592,3.8917 7.528233,6.20759 6.539238,5.25416 12.59751,11.91088 14.175857,15.57618 0.662451,1.53838 1.239834,4.98285 1.28306,7.6544 0.105437,6.51715 -2.923983,11.61492 -9.105047,15.32138 -5.217092,3.12842 -6.750444,3.18353 -15.777953,0.56709 -3.852579,-1.11659 -8.802808,-2.04017 -11.000488,-2.05239 -4.301679,-0.024 -11.409795,2.15397 -16.72412,5.12419 -3.920142,2.19101 -15.641763,11.67681 -15.641763,12.6582 0,0.60919 2.26299,0.80947 11.387998,1.00786 1.428494,0.0311 7.690271,-0.24055 13.915054,-0.60358 9.801489,-0.57162 11.692051,-0.48245 14.11132,0.66558 5.954198,2.82544 5.245023,9.5343 -1.649354,15.60298 -6.918994,6.09034 -17.295249,9.63658 -32.970071,11.26798 -4.615136,0.48033 -10.009433,1.48824 -11.987348,2.23979 -4.950954,1.88122 -12.1677665,6.61454 -17.9373475,11.76459 -2.661259,2.37551 -9.1269165,7.19874 -14.3681215,10.71831 -5.610052,3.76724 -10.329896,7.57712 -11.475566,9.26311 -2.34837,3.45595 -9.911881,19.40926 -11.31622,23.86868 -0.968261,3.07471 -6.350481,15.26645 -11.40427,25.83283 -1.329686,2.78009 -4.568457,7.95554 -7.197259,11.501 -7.908716,10.66651 -8.897486,12.86347 -7.080816,15.7329 0.57003,0.90036 1.856,0.38828 6.52244,-2.59726 6.834504,-4.37266 9.862283,-4.76498 12.782501,-1.65628 1.63836,1.7441 1.927438,2.82346 1.872821,6.99262 -0.03711,2.83658 -0.602096,5.94826 -1.33034,7.32765 -1.416556,2.6831 -5.373125,6.54801 -8.994129,8.78577 -1.318616,0.81489 -4.766052,3.38996 -7.660978,5.72236 -2.894925,2.3324 -7.321445,5.18289 -9.836715,6.33441 -5.61738,2.57173 -8.875349,2.18485 -13.117769,-1.55767 -1.62204,-1.4309 -4.33904,-3.40074 -6.037785,-4.3774 l -3.08863,-1.77577 -6.994546,5.94892 c -13.01562,11.06989 -26.72248,18.59888 -39.43674,21.66205 -4.59374,1.10675 -8.8411,2.01298 -9.43859,2.01386 -0.6265,7.9e-4 -1.1541,0.97517 -1.24644,2.30168 -0.0881,1.26505 -1.306,4.86285 -2.70655,7.99512 -2.43164,5.43825 -2.5055,5.899 -1.638,10.21856 1.80964,9.01086 0.68378,15.43094 -3.18074,18.13775 -2.30043,1.61128 -3.59827,1.61382 -6.84354,0.0134 z"
       id="path744"
       sodipodi:nodetypes="sssscssassssssssssszssssssssssssssssssssssssssssssssssssssssssssssssssssscsscssssss" />
    <g
       aria-label="Mink"
       id="text3798"
       style="font-size:225.427px;line-height:1.25;stroke-width:18.8976"
       transform="translate(0,0.99973567)">
      <path
         d="M 27.539796,306.73549 69.367072,437.50076 111.19435,306.73549 h 25.97694 V 467 H 117.02815 V 404.5893 L 118.89937,342.06853 76.962024,467 H 61.551975 L 19.834771,342.50882 21.705992,404.5893 V 467 H 1.5628565 V 306.73549 Z"
         style="font-family:'Roboto Condensed';-inkscape-font-specification:'Roboto Condensed, '"
         id="path23055" />
      <path
         d="M 175.10789,467 H 155.62518 V 347.90234 h 19.48271 z m 1.541,-150.68826 q 0,4.95323 -2.75179,8.25538 -2.7518,3.30215 -8.36546,3.30215 -5.50359,0 -8.25538,-3.30215 -2.75179,-3.30215 -2.75179,-8.25538 0,-4.95323 2.75179,-8.36546 2.75179,-3.41222 8.25538,-3.41222 5.50359,0 8.25539,3.52229 2.86186,3.41223 2.86186,8.25539 z"
         style="font-family:'Roboto Condensed';-inkscape-font-specification:'Roboto Condensed, '"
         id="path23057" />
      <path
         d="m 212.38406,347.90234 0.55036,12.87839 q 11.33739,-15.07983 28.94888,-15.07983 31.5906,0 32.03088,42.15749 V 467 h -19.37263 v -78.26103 q 0,-13.97912 -4.73308,-19.81292 -4.62302,-5.94388 -13.97912,-5.94388 -7.26474,0 -13.09854,4.84316 -5.72373,4.84316 -9.24603,12.65825 V 467 H 194.00207 V 347.90234 Z"
         style="font-family:'Roboto Condensed';-inkscape-font-specification:'Roboto Condensed, '"
         id="path23059" />
      <path
         d="m 321.09681,412.51447 -10.34675,11.88775 V 467 H 291.26735 V 297.92975 h 19.48271 v 101.15596 l 37.09419,-51.18337 h 23.33521 L 333.31477,397.65478 376.13269,467 h -22.67478 z"
         style="font-family:'Roboto Condensed';-inkscape-font-specification:'Roboto Condensed, '"
         id="path23061" />
    </g>
    <path
       style="fill:none;fill-opacity:1;stroke:#f3591a;stroke-width:19.6391;stroke-linecap:butt;stroke-linejoin:miter;stroke-miterlimit:4;stroke-dasharray:none;stroke-opacity:1"
       d="m 429.93533,354.74485 -35.80534,47.54512 35.29736,60.77832"
       id="path20423" />
    <path
       style="fill:none;fill-opacity:1;stroke:#f3591a;stroke-width:19.6391;stroke-linecap:butt;stroke-linejoin:miter;stroke-miterlimit:4;stroke-dasharray:none;stroke-opacity:1"
       d="m 459.16635,354.74485 35.80534,47.54512 -35.29736,60.77832"
       id="path20821" />
  </g>
</svg>
